<svg width="1920" height="230" viewBox="0 0 1920 230" fill="none" xmlns="http://www.w3.org/2000/svg">
<path d="M0 65.67H40.5208C81.0417 65.67 162.083 65.67 243.125 81.6869C324.167 97.7037 405.208 133.195 486.25 111.872C567.292 90.1495 617.958 38.9009 699 11.8724C780.042 -15.1561 914.458 6.12203 995.5 53.8724C1076.54 102.223 1134.58 150.76 1215.62 161.771C1296.67 172.783 1377.71 118.726 1458.75 103.009C1539.79 86.6921 1620.83 108.715 1701.88 103.009C1782.92 97.7037 1863.96 65.67 1904.48 49.6531L1945 33.6362V257.872H1904.48C1863.96 257.872 1782.92 257.872 1701.88 257.872C1620.83 257.872 1539.79 257.872 1458.75 257.872C1377.71 257.872 1296.67 257.872 1215.62 257.872C1134.58 257.872 1053.54 257.872 972.5 257.872C891.458 257.872 810.417 257.872 729.375 257.872C648.333 257.872 567.292 257.872 486.25 257.872C405.208 257.872 324.167 257.872 243.125 257.872C162.083 257.872 81.0417 257.872 40.5208 257.872H0V65.67Z" fill="#437D94"/>
<path d="M0 203.872H35.6C71.0667 203.872 142.667 203.872 213.333 193.172C284.4 182.872 356 160.872 426.667 145.172C497.733 128.872 569.333 118.872 640 107.872C711.067 96.8724 782.667 86.8724 853.333 102.572C924.4 118.872 996 160.872 1066.67 177.172C1137.73 192.872 1209.33 182.872 1280 161.172C1351.07 139.872 1407.83 83.6724 1478.5 94.3724C1549.57 104.672 1636 182.872 1706.67 182.572C1777.73 182.872 1849.33 128.872 1884 102.572L1920 75.8724V331.872H1884.4C1848.93 331.872 1777.33 331.872 1706.67 331.872C1635.6 331.872 1564 331.872 1493.33 331.872C1422.27 331.872 1350.67 331.872 1280 331.872C1208.93 331.872 1137.33 331.872 1066.67 331.872C995.6 331.872 924 331.872 853.333 331.872C782.267 331.872 710.667 331.872 640 331.872C568.933 331.872 497.333 331.872 426.667 331.872C355.6 331.872 284 331.872 213.333 331.872C142.267 331.872 70.6667 331.872 36 331.872H0V203.872Z" fill="#5E9DB6"/>
</svg>
