<svg width="428" height="143" viewBox="0 0 428 143" fill="none" xmlns="http://www.w3.org/2000/svg">
<path d="M428 115.288H418.833C409.667 115.288 391.333 115.288 373 108.529C354.667 101.77 336.333 86.7934 318 95.7913C299.667 104.958 288.205 126.584 269.871 137.99C251.538 149.396 221.13 140.417 202.797 120.267C184.464 99.863 171.333 79.3813 153 74.7345C134.667 70.0878 116.333 92.8992 98 99.5313C79.6666 106.417 61.3333 97.1235 43 99.5313C24.6667 101.77 6.33332 115.288 -2.83333 122.047L-12 128.806V34.181H-2.83333C6.33332 34.181 24.6667 34.181 43 34.181C61.3333 34.181 79.6666 34.181 98 34.181C116.333 34.181 134.667 34.181 153 34.181C171.333 34.181 189.667 34.181 208 34.181C226.333 34.181 244.667 34.181 263 34.181C281.333 34.181 299.667 34.181 318 34.181C336.333 34.181 354.667 34.181 373 34.181C391.333 34.181 409.667 34.181 418.833 34.181H428V115.288Z" fill="#437D94"/>
<path d="M428 54.0144H419.947C411.923 54.0144 395.726 54.0144 379.74 58.5297C363.663 62.8762 347.465 72.1599 331.479 78.7851C315.402 85.6635 299.205 89.8834 283.219 94.5252C267.142 99.1671 250.944 103.387 234.958 96.7618C218.881 89.8834 202.684 72.1599 186.698 65.2815C170.621 58.6563 154.423 62.8762 138.437 72.0333C122.36 81.0216 109.518 104.737 93.5322 100.222C77.4554 95.8756 57.9023 62.8762 41.916 63.0028C25.8392 62.8762 9.64182 85.6635 1.79948 96.7618L-6.34447 108.029V2.57561e-05H1.70896C9.73228 2.57561e-05 25.9297 2.57561e-05 41.916 2.57561e-05C57.9928 2.57561e-05 74.1902 2.57561e-05 90.1765 2.57561e-05C106.253 2.57561e-05 122.451 2.57561e-05 138.437 2.57561e-05C154.514 2.57561e-05 170.711 2.57561e-05 186.698 2.57561e-05C202.774 2.57561e-05 218.972 2.57561e-05 234.958 2.57561e-05C251.035 2.57561e-05 267.232 2.57561e-05 283.219 2.57561e-05C299.295 2.57561e-05 315.493 2.57561e-05 331.479 2.57561e-05C347.556 2.57561e-05 363.753 2.57561e-05 379.74 2.57561e-05C395.816 2.57561e-05 412.014 2.57561e-05 419.856 2.57561e-05H428V54.0144Z" fill="#5E9DB6"/>
</svg>
