<svg width="1909" height="193" viewBox="0 0 1909 193" fill="none" xmlns="http://www.w3.org/2000/svg">
<path d="M1909 127.202H1868.48C1827.96 127.202 1746.92 127.202 1665.88 111.186C1584.83 95.1686 1503.79 59.6775 1422.75 81C1341.71 102.723 1291.04 153.972 1210 181C1128.96 208.028 994.542 186.75 913.5 139C832.458 90.6491 774.417 42.1127 693.375 31.1011C612.333 20.0895 531.292 74.1465 450.25 89.863C369.208 106.18 288.167 84.157 207.125 89.863C126.083 95.1686 45.0417 127.202 4.52087 143.219L-36 159.236V-65.0001H4.52087C45.0417 -65.0001 126.083 -65.0001 207.125 -65.0001C288.167 -65.0001 369.208 -65.0001 450.25 -65.0001C531.292 -65.0001 612.333 -65.0001 693.375 -65.0001C774.417 -65.0001 855.458 -65.0001 936.5 -65.0001C1017.54 -65.0001 1098.58 -65.0001 1179.62 -65.0001C1260.67 -65.0001 1341.71 -65.0001 1422.75 -65.0001C1503.79 -65.0001 1584.83 -65.0001 1665.88 -65.0001C1746.92 -65.0001 1827.96 -65.0001 1868.48 -65.0001H1909V127.202Z" fill="#437D94"/>
<path d="M1909 -11H1873.4C1837.93 -11 1766.33 -11 1695.67 -0.300003C1624.6 10 1553 32 1482.33 47.7C1411.27 64 1339.67 74 1269 85C1197.93 96 1126.33 106 1055.67 90.3C984.6 74 913 32 842.333 15.7C771.267 0 699.667 10 629 31.7C557.933 53 501.167 109.2 430.5 98.5C359.433 88.2 273 10 202.333 10.3C131.267 10 59.6666 64 25 90.3L-11 117V-139H24.5999C60.0665 -139 131.667 -139 202.333 -139C273.4 -139 345 -139 415.667 -139C486.733 -139 558.333 -139 629 -139C700.067 -139 771.667 -139 842.333 -139C913.4 -139 985 -139 1055.67 -139C1126.73 -139 1198.33 -139 1269 -139C1340.07 -139 1411.67 -139 1482.33 -139C1553.4 -139 1625 -139 1695.67 -139C1766.73 -139 1838.33 -139 1873 -139H1909V-11Z" fill="#5E9DB6"/>
</svg>
