<svg width="428" height="187" viewBox="0 0 428 187" fill="none" xmlns="http://www.w3.org/2000/svg">
<path d="M-12 37.0385H-2.45833C7.08333 37.0385 26.1667 37.0385 45.25 46.0722C64.3333 55.1059 83.4167 75.1232 102.5 63.0971C121.583 50.8452 133.514 21.9405 152.597 6.69614C171.681 -8.54819 203.333 3.45289 222.416 30.3845C241.499 57.6549 255.167 85.0299 274.25 91.2406C293.333 97.4512 312.417 66.9626 331.5 58.0983C350.583 48.8952 369.667 61.3165 388.75 58.0983C407.833 55.1059 426.917 37.0385 436.458 28.0048L446 18.9711V145.443H436.458C426.917 145.443 407.833 145.443 388.75 145.443C369.667 145.443 350.583 145.443 331.5 145.443C312.417 145.443 293.333 145.443 274.25 145.443C255.167 145.443 236.083 145.443 217 145.443C197.917 145.443 178.833 145.443 159.75 145.443C140.667 145.443 121.583 145.443 102.5 145.443C83.4167 145.443 64.3333 145.443 45.25 145.443C26.1667 145.443 7.08333 145.443 -2.45833 145.443H-12V37.0385Z" fill="#437D94"/>
<path d="M-12 114.986H-3.61707C4.73446 114.986 21.5945 114.986 38.2348 108.951C54.9693 103.142 71.8293 90.7336 88.4696 81.8786C105.204 72.6853 122.064 67.0452 138.704 60.8411C155.439 54.637 172.299 48.9969 188.939 57.8518C205.674 67.0452 222.534 90.7336 239.174 99.9269C255.908 108.782 272.768 103.142 289.409 90.9028C306.143 78.8894 319.51 47.192 336.151 53.2269C352.885 59.0362 373.238 103.142 389.878 102.973C406.613 103.142 423.473 72.6853 431.636 57.8518L440.113 42.7928V187.179H431.73C423.379 187.179 406.519 187.179 389.878 187.179C373.144 187.179 356.284 187.179 339.644 187.179C322.909 187.179 306.049 187.179 289.409 187.179C272.674 187.179 255.814 187.179 239.174 187.179C222.439 187.179 205.579 187.179 188.939 187.179C172.205 187.179 155.345 187.179 138.704 187.179C121.97 187.179 105.11 187.179 88.4696 187.179C71.7351 187.179 54.8751 187.179 38.2348 187.179C21.5003 187.179 4.64027 187.179 -3.52288 187.179H-12V114.986Z" fill="#5E9DB6"/>
</svg>
