<svg width="39" height="39" viewBox="0 0 39 39" fill="none" xmlns="http://www.w3.org/2000/svg">
<path d="M19.5 0.75C15.7916 0.75 12.1665 1.84967 9.08307 3.90994C5.99964 5.97022 3.59641 8.89857 2.17727 12.3247C0.758124 15.7508 0.386812 19.5208 1.11028 23.1579C1.83376 26.7951 3.61952 30.136 6.24176 32.7583C8.86399 35.3805 12.2049 37.1663 15.8421 37.8897C19.4792 38.6132 23.2492 38.2419 26.6753 36.8227C30.1014 35.4036 33.0298 33.0004 35.0901 29.9169C37.1503 26.8335 38.25 23.2084 38.25 19.5C38.25 17.0377 37.765 14.5995 36.8228 12.3247C35.8805 10.0498 34.4994 7.98285 32.7583 6.24175C31.0172 4.50065 28.9502 3.11953 26.6753 2.17726C24.4005 1.23498 21.9623 0.75 19.5 0.75ZM19.5 34.5C16.5333 34.5 13.6332 33.6203 11.1665 31.972C8.69972 30.3238 6.77713 27.9811 5.64182 25.2403C4.5065 22.4994 4.20945 19.4834 4.78823 16.5736C5.36701 13.6639 6.79562 10.9912 8.89341 8.8934C10.9912 6.79561 13.6639 5.367 16.5737 4.78822C19.4834 4.20944 22.4994 4.50649 25.2403 5.64181C27.9812 6.77712 30.3238 8.69971 31.972 11.1664C33.6203 13.6332 34.5 16.5333 34.5 19.5C34.5 23.4782 32.9197 27.2936 30.1066 30.1066C27.2936 32.9196 23.4783 34.5 19.5 34.5Z" fill="white"/>
<path d="M19.5 8.25C17.7595 8.25 16.0903 8.94141 14.8596 10.1721C13.6289 11.4028 12.9375 13.072 12.9375 14.8125C12.9375 15.3098 13.135 15.7867 13.4867 16.1383C13.8383 16.49 14.3152 16.6875 14.8125 16.6875C15.3098 16.6875 15.7867 16.49 16.1383 16.1383C16.49 15.7867 16.6875 15.3098 16.6875 14.8125C16.6875 14.2562 16.8524 13.7125 17.1615 13.25C17.4705 12.7875 17.9098 12.427 18.4237 12.2141C18.9376 12.0012 19.5031 11.9455 20.0487 12.054C20.5943 12.1626 21.0954 12.4304 21.4887 12.8238C21.8821 13.2171 22.1499 13.7182 22.2585 14.2638C22.367 14.8094 22.3113 15.3749 22.0984 15.8888C21.8855 16.4027 21.5251 16.842 21.0625 17.151C20.6 17.4601 20.0563 17.625 19.5 17.625C19.0027 17.625 18.5258 17.8225 18.1742 18.1742C17.8225 18.5258 17.625 19.0027 17.625 19.5V23.25C17.625 23.7473 17.8225 24.2242 18.1742 24.5758C18.5258 24.9275 19.0027 25.125 19.5 25.125C19.9973 25.125 20.4742 24.9275 20.8258 24.5758C21.1775 24.2242 21.375 23.7473 21.375 23.25V21.075C22.8902 20.6325 24.1944 19.6572 25.0472 18.329C25.9 17.0007 26.2439 15.4089 26.0155 13.847C25.7872 12.2851 25.002 10.8584 23.8046 9.82986C22.6072 8.8013 21.0785 8.24021 19.5 8.25Z" fill="white"/>
<path d="M19.5 30.75C20.5355 30.75 21.375 29.9105 21.375 28.875C21.375 27.8395 20.5355 27 19.5 27C18.4645 27 17.625 27.8395 17.625 28.875C17.625 29.9105 18.4645 30.75 19.5 30.75Z" fill="white"/>
</svg>
