<svg width="38" height="38" viewBox="0 0 38 38" fill="none" xmlns="http://www.w3.org/2000/svg">
<path fill-rule="evenodd" clip-rule="evenodd" d="M33.3469 19.0011C33.348 22.2657 32.2511 25.4317 30.2395 27.9696C28.2279 30.5075 25.4237 32.2633 22.2959 32.9434C19.1681 33.6236 15.9064 33.1868 13.0563 31.706C10.2063 30.2253 7.94061 27.7905 6.63837 24.8088L2.32343 26.598C4.03397 30.599 7.04174 33.8768 10.8411 35.8803C14.6404 37.8839 18.9996 38.491 23.1858 37.5996C27.372 36.7082 31.13 34.3726 33.8278 30.9856C36.5257 27.5985 37.999 23.3665 38 19.0011C38.0002 15.0355 36.7849 11.1693 34.5245 7.94423C32.2641 4.71916 29.0719 2.29691 25.3952 1.01694C21.7186 -0.263021 17.7417 -0.336545 14.0221 0.806677C10.3024 1.9499 7.02636 4.25257 4.65306 7.39197V1.58424H0V14.251L2.32653 16.6261H13.1837V11.876H7.296C8.83184 9.15794 11.2036 7.03336 14.0431 5.83195C16.8826 4.63054 20.0312 4.41949 23.0003 5.23154C25.9694 6.0436 28.5928 7.83335 30.4637 10.3231C32.3345 12.8128 33.348 15.8632 33.3469 19.0011Z" fill="white"/>
</svg>
