<svg width="211" height="115" viewBox="0 0 211 115" fill="none" xmlns="http://www.w3.org/2000/svg">
<rect x="1.5" y="1.5" width="208" height="112" rx="21.5" stroke="white" stroke-width="3"/>
<path fill-rule="evenodd" clip-rule="evenodd" d="M132.306 57.502C132.308 63.6017 130.259 69.5172 126.5 74.259C122.742 79.0008 117.502 82.2815 111.658 83.5522C105.814 84.823 99.7199 84.0068 94.3948 81.2402C89.0696 78.4736 84.8364 73.9244 82.4033 68.3533L74.3411 71.6963C77.5371 79.1718 83.1569 85.2961 90.2557 89.0396C97.3544 92.783 105.499 93.9174 113.321 92.2518C121.142 90.5863 128.164 86.2225 133.205 79.8941C138.245 73.5657 140.998 65.6585 141 57.502C141 50.0927 138.73 42.869 134.506 36.8432C130.283 30.8174 124.319 26.2916 117.449 23.9001C110.579 21.5086 103.149 21.3712 96.1991 23.5072C89.2492 25.6432 83.1282 29.9456 78.6939 35.8113V24.96H70V48.6269L74.3469 53.0645H94.6327V44.1894H83.632C86.5016 39.1109 90.9329 35.1413 96.2384 32.8965C101.544 30.6518 107.427 30.2575 112.974 31.7747C118.522 33.292 123.423 36.636 126.919 41.2878C130.414 45.9397 132.308 51.6392 132.306 57.502V57.502Z" fill="white"/>
</svg>
