<svg width="428" height="187" viewBox="0 0 428 187" fill="none" xmlns="http://www.w3.org/2000/svg">
<path d="M-12 37.0385H-2.5C7 37.0385 26 37.0385 45 46.0722C64 55.1059 83 75.1232 102 63.0971C121 50.8452 132.879 21.9405 151.879 6.69614C170.879 -8.54819 202.392 3.45289 221.392 30.3845C240.392 57.6549 254 85.0299 273 91.2406C292 97.4512 311 66.9626 330 58.0983C349 48.8952 368 61.3165 387 58.0983C406 55.1059 425 37.0385 434.5 28.0048L444 18.9711V145.443H434.5C425 145.443 406 145.443 387 145.443C368 145.443 349 145.443 330 145.443C311 145.443 292 145.443 273 145.443C254 145.443 235 145.443 216 145.443C197 145.443 178 145.443 159 145.443C140 145.443 121 145.443 102 145.443C83 145.443 64 145.443 45 145.443C26 145.443 7 145.443 -2.5 145.443H-12V37.0385Z" fill="#FF676A"/>
<path d="M-12 114.986H-3.65368C4.66139 114.986 21.4478 114.986 38.0154 108.951C54.6768 103.142 71.4632 90.7336 88.0308 81.8786C104.692 72.6853 121.479 67.0452 138.046 60.8411C154.708 54.637 171.494 48.9969 188.062 57.8518C204.723 67.0452 221.51 90.7336 238.077 99.9269C254.739 108.782 271.525 103.142 288.093 90.9028C304.754 78.8894 318.063 47.192 334.63 53.2269C351.292 59.0362 371.556 103.142 388.123 102.973C404.785 103.142 421.571 72.6853 429.699 57.8518L438.139 42.7928V187.179H429.793C421.477 187.179 404.691 187.179 388.123 187.179C371.462 187.179 354.676 187.179 338.108 187.179C321.447 187.179 304.66 187.179 288.093 187.179C271.431 187.179 254.645 187.179 238.077 187.179C221.416 187.179 204.629 187.179 188.062 187.179C171.4 187.179 154.614 187.179 138.046 187.179C121.385 187.179 104.598 187.179 88.0308 187.179C71.3695 187.179 54.583 187.179 38.0154 187.179C21.354 187.179 4.56761 187.179 -3.5599 187.179H-12V114.986Z" fill="#FF8385"/>
</svg>
