<svg width="1920" height="228" viewBox="0 0 1920 228" fill="none" xmlns="http://www.w3.org/2000/svg">
<path d="M0 65.7977H40.5208C81.0417 65.7977 162.083 65.7977 243.125 81.8145C324.167 97.8314 405.208 133.323 486.25 112C567.292 90.2772 617.958 39.0285 699 12.0001C780.042 -15.0284 914.458 6.24972 995.5 54C1076.54 102.351 1134.58 150.887 1215.62 161.899C1296.67 172.911 1377.71 118.854 1458.75 103.137C1539.79 86.8198 1620.83 108.843 1701.88 103.137C1782.92 97.8314 1863.96 65.7977 1904.48 49.7808L1945 33.7639V258H1904.48C1863.96 258 1782.92 258 1701.88 258C1620.83 258 1539.79 258 1458.75 258C1377.71 258 1296.67 258 1215.62 258C1134.58 258 1053.54 258 972.5 258C891.458 258 810.417 258 729.375 258C648.333 258 567.292 258 486.25 258C405.208 258 324.167 258 243.125 258C162.083 258 81.0417 258 40.5208 258H0V65.7977Z" fill="#4F9B5B"/>
<path d="M0 204H35.6C71.0667 204 142.667 204 213.333 193.3C284.4 183 356 161 426.667 145.3C497.733 129 569.333 119 640 108C711.067 97 782.667 87 853.333 102.7C924.4 119 996 161 1066.67 177.3C1137.73 193 1209.33 183 1280 161.3C1351.07 140 1407.83 83.8 1478.5 94.5C1549.57 104.8 1636 183 1706.67 182.7C1777.73 183 1849.33 129 1884 102.7L1920 76V332H1884.4C1848.93 332 1777.33 332 1706.67 332C1635.6 332 1564 332 1493.33 332C1422.27 332 1350.67 332 1280 332C1208.93 332 1137.33 332 1066.67 332C995.6 332 924 332 853.333 332C782.267 332 710.667 332 640 332C568.933 332 497.333 332 426.667 332C355.6 332 284 332 213.333 332C142.267 332 70.6667 332 36 332H0V204Z" fill="#56AB63"/>
</svg>
